<?xml version="1.0" ?>
<svg xmlns="http://www.w3.org/2000/svg" width="24" height="24" viewBox="0 0 24 24">
  <path d="m9.91543,11.9005l0,-6c0,-1.66 -1.34,-3 -3,-3s-3,1.34 -3,3l0,6c-1.21,0.91 -2,2.37 -2,4c0,1.12 0.38,2.14 1,2.97l0,0.03l0.02,0c0.91,1.21 2.35,2 3.98,2s3.06,-0.79 3.98,-2l0.02,0l0,-0.03c0.62,-0.83 1,-1.85 1,-2.97c0,-1.63 -0.79,-3.09 -2,-4zm-6,4c0,-0.94 0.45,-1.84 1.2,-2.4l0.8,-0.6l0,-7c0,-0.55 0.45,-1 1,-1s1,0.45 1,1l0,7l0.8,0.6c0.75,0.57 1.2,1.46 1.2,2.4l-6,0z" fill="#/white"/>
  <path d="m12.99775,6.04523c-1.77926,1.77926 -1.77926,4.65996 -0.01303,6.43921c0.95806,-2.21592 2.66563,-4.06687 4.79682,-5.16832c-1.80533,1.52508 -3.06971,3.65627 -3.51289,6.07424c1.69453,0.80164 3.7801,0.50836 5.18135,-0.89289c2.26806,-2.26806 2.63956,-9.0918 2.63956,-9.0918s-6.82374,0.37149 -9.0918,2.63956z" fill="#/white"/>
</svg>
