<?xml version="1.0" encoding="UTF-8"?>
<svg version="1.1" viewBox="0 0 1600 1600" width="100" height="100" xmlns="http://www.w3.org/2000/svg">
<path transform="translate(297,478)" d="m0 0h986l45 1 23 2 12 3 16 8 14 11 9 10 9 14 7 15 9 28 14 52 16 61 17 63 15 56 12 44 19 70 10 38 10 37 11 41 12 45 11 40 10 37 13 43 2 3h1v116h-3l-2 1-2 5-10 17-9 10-10 9-13 8-16 5-26 3-26 1h-1389l-18-1-15-3-12-5-14-9-12-11-8-11-9-15-6-9v-117h2l3-10 9-29 20-75 11-40 12-45 38-140 10-37 16-60 34-127 15-55 10-33 7-16 8-12 3-4h2l2-4h2l2-4 11-9 14-8 10-4 11-2 11-1zm49 193-3 1-5 25-7 32-9 40-13 57-8 33v4h198l6-43 6-45 11-93 1-10-33-1zm242 0-1 1-2 25-7 57-6 51-6 59h68l131-1 2-1v-190l-1-1zm244 0-1 3v189l11 1h117l62-1 11-1-2-23-10-92-8-69-2-7zm246 0-2 1 2 18 4 40 13 114 3 18 1 1 12 1h98l86-1 2-1-1-11-12-51-17-77-7-30-4-16-3-5-9-1zm-793 256-2 5-6 26-9 38-8 36-12 52-17 65v1l7 1h226l2-2 6-42 8-67 12-104v-9zm273 0-1 1-8 71-6 49-9 83-2 14v5l23 1 171 1 39-1 2-1v-222l-1-1zm470-1-197 1v223l1 1 62 1h106l57-1 8-1 1-4-9-81-9-84-4-35-3-19-1-1zm272 0-194 1-1 2 4 28 12 109 7 62 4 22 15 1h210l7-1 2-4-10-40-7-30-14-62-15-64-5-18-3-5-5-1z" fill="#FDFDFD"/>
<path transform="translate(784)" d="m0 0h33l5 9 8 13 26 52 11 21 15 25 16 24 11 13 6 5 15-1 36-9 26-9 31-13 27-13 11-4 5-1h10l10 4 11 7 4 5 2 6-1 13-6 20-10 25-14 40-10 39-3 13v23l3 6 7 7 14 10 21 12 23 12 33 16 25 11 19 11 9 7 4 7-2 14-7 16-6 8-7 3-122 1h-111l-4-1-2-4 1-11v-27l-3-22-6-20-8-20-10-18-12-16-10-11-11-9-10-7-18-10-15-6-24-6-24-3h-18l-23 3-15 4-16 6-17 9-11 8-10 8-10 9-9 10-11 16-9 17-6 16-6 21-3 17v44l-4 2-127 1-96-1-13-1-7-3-8-14-3-7-1-5v-12l4-8 11-9 15-8 26-12 16-8 21-11 23-11 22-12 16-10 4-4 1-5-3-20-7-30-11-37-11-32-13-34-2-9v-8l3-9 4-5h2l2-4 9-7h10l17 4 24 9 34 13 33 11 26 6 26 5h8l8-5 8-10 10-15 17-32 13-27 12-30 11-24 11-14z" fill="#FDFDFD"/>
<path transform="translate(728,1407)" d="m0 0h226l4 4 3 21v5l40 1 21 1 24 3 14 4 16 8 13 10 9 10 10 16 6 12 4 14 3 25-1 26-2 9-6 10-7 9-2 5h-608l-12-21-3-9-1-10v-24l2-18 4-15 6-15 11-16 9-9 10-8 18-10 19-5 8-1 23-1h48l1-2 2-24 4-4zm374 190 1 2z" fill="#FDFDFD"/>
<path transform="translate(1598,1172)" d="m0 0h2v6l-1-3h-2z" fill="#fff"/>
<path transform="translate(1599,1179)" d="m0 0" fill="#fff"/>
<path transform="translate(1599,1325)" d="m0 0" fill="#fff"/>
<path transform="translate(1597,1315)" d="m0 0" fill="#fff"/>
<path transform="translate(1599,1184)" d="m0 0" fill="#fff"/>
</svg>
