<?xml version="1.0" encoding="UTF-8"?>
<svg version="1.1" viewBox="0 0 1600 1600" width="100" height="100" xmlns="http://www.w3.org/2000/svg">
<path transform="translate(327,731)" d="m0 0h833l38 1 34 3 24 5 22 8 21 11 14 9 17 13 15 14 9 10 13 18 11 19 8 18 6 18 5 23 3 23 1 15v54l-2 18-5 15-9 15-13 13-10 6-13 4-16 2-36 1h-149l-29-1-9-2-12-6-12-11-9-10-6-10-4-19v-7l-400-1v48l-1 285-2 17-4 11-9 14-12 12-8 5-12 4-11 2-11 1-31 1h-301l-15-2-12-4-11-7-16-16-7-12-4-15-2-19-1-23v-565l2-4 9-1z" fill="#fff"/>
<path transform="translate(1146,199)" d="m0 0h25l20 4 19 7 17 9 13 11 10 10 7 10 6 12 3 12 1 7v11l-3 17-6 15-10 16-10 11-15 10-19 9-12 6-59 25-38 16-30 13-35 15-24 10-84 36-31 13-72 31-36 15-35 15-41 18-26 10-19 6-11 1-407 1-41-1-2-2-1-6 11-44 8-23 9-20 8-15 9-14 9-13 9-12 5-6h2v-2h2l2-4 11-11 8-7 11-9 13-9 21-13 16-8 11-5 30-10 39-10 107-24 72-16 140-32 84-19 195-44 39-9 38-8 30-5z" fill="#fff"/>
<path transform="translate(1232,1134)" d="m0 0 4 1 6 5 14 19 14 18 12 16 14 20 13 21 7 12 10 22 6 20 1 5v20l-4 16-6 13-8 14-9 11-8 9-13 9-10 5-18 6-13 3-16 1-20-3-15-5-15-8-14-12-9-10-9-14-8-16-4-12-2-13 1-13 3-15 7-19 10-20 13-21 11-17 10-13 7-10h2l2-4 4-6 11-14 9-11 8-9z" fill="#fff"/>
</svg>
