<?xml version="1.0" encoding="UTF-8"?>
<svg version="1.1" viewBox="0 0 1600 1600" width="100" height="100" xmlns="http://www.w3.org/2000/svg">
<path transform="translate(1313,82)" d="m0 0h29l61 1 13 2 10 5 10 9 8 13 5 13 1 4v12l-5 12-7 11-9 8-15 9-25 14-22 15-11 9-13 11-18 18-1 2h-2l-2 4-9 10-12 17-14 24-8 16-8 18-6 16-6 25-4 30-1 12-1 26-1 720v176l-3 10h-5l-10-5-11-4-16-8-12-8-17-14-16-12-14-8-18-7-14-3-15-2-17 1-14 3-19 7-13 7-14 12-11 9-12 10-13 8-19 7-14 3h-15l-18-5-14-7-17-13-10-9-14-11-13-8-15-7-21-5-8-1h-24l-17 4-19 8-15 9-14 12-11 9-10 8-12 7-16 6-12 3h-15l-11-2-16-6-10-6-9-7-14-12-16-12-18-10-15-6-20-5-11-1h-15l-15 4-16 6-13 7-17 12-13 10-12 9-14 9-22 10-8 3h-5l-3-6-1-10-1-41-1-858-3-42-3-19-7-26-7-20-10-22-10-18-12-18-10-13-12-14-17-17-11-9-17-13-17-11-26-14-12-8-10-9-8-10-7-17v-8l5-15 6-9 8-10 14-10 6-2 16-1h908zm-489 135-13 4-11 8-9 11-5 10-2 9-1 24v176l2 17 3 12 10 13 7 6 16 6 11 2h8l13-4 11-7 10-10 4-6 2-7 1-9 1-24v-183l-3-14-7-14-9-10-10-6-8-3-4-1zm-231 99-10 2-10 5-12 11-5 8-4 11-1 5-1 16v194l3 16 7 13 7 7 19 9 9 2h10l12-3 12-7 9-8 7-14 3-15 1-24v-177l-3-14-8-16-6-8-9-7-9-4-13-2zm432 67-9 2-11 6-9 7-6 8-5 13-2 19v226l1 13 5 13 7 10 19 11 13 4 16-1 10-4 11-7 7-7 6-12 3-16 1-49v-185l-2-13-5-11-6-10-8-8-14-7-10-2zm-201 334-13 4-10 7-7 7-6 9-4 13-1 38v270l2 15 5 12 9 10 9 6 13 5 12 2h7l12-4 11-7 10-9 6-10 2-14 1-17v-286l-2-13-3-9-5-9-9-10-9-6-8-3-5-1zm-236 33-11 4-13 10v2h-2l-6 10-4 12-2 14-1 46 2 23 4 13 7 14 6 7 11 6 14 4h12l13-4 11-6 9-8 6-12 4-17 1-12v-47l-2-17-5-14-6-11-9-9-9-5-14-3zm436 133-13 5-11 7-8 8-6 12-2 7-1 11v267l3 16 4 9 4 6 8 7 12 6 11 3h19l10-3 10-6 5-4 7-11 4-13 1-7 1-19v-247l-1-12-4-11-8-14-8-8-10-6-9-3zm-433 100-11 4-12 7-9 9-6 11-3 16v208l2 12 7 12 9 9 8 5 18 6h13l12-4 12-7 9-9 4-8 3-12 1-9v-205l-4-14-6-11-8-10-13-8-7-2z" fill="#FEFEFE"/>
<path transform="translate(1389,1347)" d="m0 0h7l13 5 15 8 18 13 12 10 15 10 19 12 11 9 9 10 6 10 3 10v12l-5 13-7 10-9 10-10 7-13 4h-11l-14-3-13-5-19-11-10-7-7-4h-8l-10 6-11 7-24 12-22 8-26 7-22 4-24 2h-16l-19-1-23-4-23-6-24-9-17-8-16-10-16-9-7 1-9 6-10 7-17 9-19 8-35 10-22 4-23 2h-19l-25-2-25-5-33-11-18-8-21-12-10-7-2-1h-10l-17 12-26 13-19 7-24 7-25 5-24 2h-21l-23-2-25-5-23-7-24-10-18-10-16-10-7-3-6 1-15 11-19 10-19 8-29 9-29 6-25 2h-17l-25-2-25-5-21-6-25-10-19-10-16-11-7-3-7 1-8 6-10 7-16 8-15 7-8 2h-14l-13-4-9-6-5-4-6-8-8-15-2-6v-17l6-14 11-13 10-8 18-11 15-10 11-9 15-12 14-9 10-5 4-1h8l11 3 18 10 25 20 22 15 21 10 13 4 17 4 13 1h11l20-2 12-3 20-7 16-8 17-11 13-10 20-16 16-9 3-1h10l13 4 13 8 14 10 12 10 17 12 12 7 16 7 11 4 20 4 11 1h14l25-3 24-8 16-8 17-11 13-10 13-11 11-8 12-6 3-1h14l11 4 13 7 18 14 12 10 15 10 16 8 15 6 18 5 25 2 18-1 17-3 21-7 16-8 18-11 16-13 14-12 18-11 3-1h9l12 3 15 8 10 7 12 10 9 7 21 14 15 7 14 5 18 4 9 1h30l15-2 24-8 16-8 17-11 13-10 14-11 11-8z" fill="#fff"/>
<path transform="translate(605,984)" d="m0 0" fill="#fff"/>
</svg>
