<?xml version="1.0" encoding="UTF-8"?>
<svg version="1.1" viewBox="0 0 1600 1600" width="100" height="100" xmlns="http://www.w3.org/2000/svg">
<path transform="translate(653,224)" d="m0 0h328l38 1 17 1 8 2 10 6 8 8 8 13 3 11 1 7v10l-4 11-6 10-12 13-10 5-18 2-21 1-51 1h-102v24l-1 21v25l32 1 89 1 37 1 28 2 18 3 16 6 15 8 13 10 10 9 9 10 13 18 10 16 9 15 16 28 11 19 6 5 91 1 2 2 1 25v222l38 1h34l1-138 1-104 1-8 1-1h11l44 2 15 2 16 4 16 7 16 11 14 12 11 11 8 7 8 8v2h2l5 5 14 15 7 7 11 14 10 15 9 19 4 13 2 11 1 17v402l-1 45-3 23-5 15-8 15-9 13-13 16-7 7-7 8-5 6-7 6-1 2h-2l-2 4-15 14-10 9-14 11-16 10-16 6-24 5-26 3-17 1h-12l-5-2-1-3-1-23v-224l-72 1-1 78v168l-1 2-4 1-479 1h-113l-20-2-18-3-19-8-15-10-13-10-14-12-10-8-15-13-10-9-11-9-11-10-11-9-10-9-14-11-11-10-10-8-11-8-9-2h-91l-14-2-18-6-16-8-12-9-13-12-7-7-11-16-8-15-5-16-2-16-1-34v-124l1-9h-25l-49-1v221l-1 22-3 10-8 11-10 8-7 2-25 1-20-2-9-4-8-7-5-7-4-16-1-10-1-26v-203l-4-13-9-17-14-19-13-17-7-14-1-3-1-13v-162l1-63 2-11 6-10 7-6 17-7 18-4 26-4 24-4 18-1 12 2 9 5 6 8 3 8 1 7 1 17v220h27l45 1 2-193 2-16 6-18 6-11 11-17 9-10 11-11 14-9 12-6 17-6 22-4 23-1 13 1 8-4 3-4h2l2-4 8-9 20-26 14-18 12-14 12-13 16-12 14-8 17-7 11-3 21-2 96-1h34l62-1 1-53 1-19-3 1h-64l-93-1-21-1-12-2-10-5-8-8-10-15-3-9-1-5v-8l3-14 6-10 8-10 8-7 9-5 5-1zm163 401-9 4-10 8-9 9-8 11-22 32-12 16-24 34-12 16-13 18-10 14-9 12-12 17-6 8-12 19-8 18-3 12v15l4 16 9 16 9 11 10 8 13 5 15 4 10 1h45l23-1-4 13-8 21-14 36-15 39-5 16-1 5v7l5 13 9 13 9 6 10 4 11 3 10-1 12-6 10-7 7-8 10-13 13-19 13-17 14-19 10-14 9-12 11-16 10-13 12-17 26-36 9-14 8-14 5-16 1-4v-19l-4-14-8-16-11-12-8-6-12-6-15-4-12-1h-65l-3-1 2-9 6-13 11-27 22-58 5-17v-14l-5-12-7-11-9-7-11-5-4-1z" fill="#FEFEFE"/>
</svg>
