<?xml version="1.0" standalone="no"?>
<!DOCTYPE svg PUBLIC "-//W3C//DTD SVG 20010904//EN"
 "http://www.w3.org/TR/2001/REC-SVG-20010904/DTD/svg10.dtd">
<svg version="1.0" xmlns="http://www.w3.org/2000/svg"
 width="330.000000pt" height="204.000000pt" viewBox="0 0 330.000000 204.000000"
 preserveAspectRatio="xMidYMid meet">

<g transform="translate(0.000000,204.000000) scale(0.100000,-0.100000)"
fill="#000000" stroke="none">
<path d="M450 1950 c-26 -4 -35 -10 -35 -25 0 -12 9 -21 23 -25 20 -4 14 -11
-48 -60 -51 -40 -77 -70 -97 -110 -26 -52 -28 -64 -31 -204 -3 -134 -5 -149
-22 -153 -10 -3 -24 -19 -31 -35 -10 -26 -10 -35 2 -57 l15 -26 1447 -3 1446
-2 17 25 c22 33 10 83 -23 96 -15 5 -563 9 -1394 9 l-1369 0 0 123 c0 133 9
179 40 212 17 18 31 21 94 20 86 -1 110 -15 126 -76 12 -45 40 -58 76 -35 19
13 23 22 18 44 -19 77 -64 131 -179 217 -19 14 -19 14 6 15 27 0 42 19 31 37
-9 13 -66 20 -112 13z m63 -27 c-13 -2 -35 -2 -50 0 -16 2 -5 4 22 4 28 0 40
-2 28 -4z m36 -90 c76 -65 107 -101 118 -138 7 -21 10 -42 7 -47 -12 -19 -32
-5 -42 30 -7 21 -23 49 -37 62 -21 20 -35 23 -107 24 -72 1 -86 -2 -109 -22
-44 -36 -59 -99 -59 -239 0 -103 -2 -123 -15 -123 -13 0 -15 23 -15 143 0 134
2 146 26 195 14 29 37 60 51 70 14 9 39 29 56 44 42 36 84 36 126 1z m2569
-511 c8 -55 98 -52 -1443 -52 -1552 0 -1456 -4 -1441 55 l6 25 1438 -2 1437
-3 3 -23z"/>
<path d="M326 1209 c-10 -53 14 -245 45 -346 64 -215 201 -400 370 -501 57
-35 169 -72 219 -73 38 -1 40 -2 16 -8 -37 -8 -55 -34 -40 -58 16 -26 132 -26
148 -1 8 13 8 23 -2 38 -12 20 -10 20 623 20 633 0 635 0 623 -20 -10 -15 -10
-25 -2 -38 16 -25 132 -25 148 1 17 26 -5 51 -50 58 -37 6 -36 6 14 8 33 0 74
11 108 26 30 14 58 25 63 25 20 0 134 84 190 139 98 98 177 231 222 376 26 86
51 250 47 320 l-3 60 -1366 3 -1366 2 -7 -31z m2714 -48 c0 -83 -18 -203 -42
-286 -72 -249 -230 -437 -453 -541 l-50 -24 -705 2 -705 3 700 5 700 5 88 45
c49 25 117 69 153 98 125 103 236 286 273 450 l9 42 -1310 0 -1311 0 6 -38
c11 -64 72 -207 120 -279 76 -114 173 -206 262 -251 63 -31 167 -70 200 -75
27 -4 26 -4 -7 -6 -34 -1 -91 17 -178 56 -53 23 -171 116 -216 169 -120 142
-194 325 -215 532 -6 66 -9 128 -6 136 6 14 137 16 1347 16 l1340 0 0 -59z
m-1972 -848 c-10 -2 -26 -2 -35 0 -10 3 -2 5 17 5 19 0 27 -2 18 -5z m2 -73
c0 -18 -7 -20 -60 -20 -53 0 -60 2 -60 20 0 18 7 20 60 20 53 0 60 -2 60 -20z
m1390 0 c0 -18 -7 -20 -60 -20 -53 0 -60 2 -60 20 0 18 7 20 60 20 53 0 60 -2
60 -20z"/>
</g>
</svg>
